<svg width="300" height="300" viewBox="0 0 300 300" fill="none" xmlns="http://www.w3.org/2000/svg">
  <defs>
    <linearGradient id="g1" x1="0" y1="0" x2="300" y2="300" gradientUnits="userSpaceOnUse">
      <stop stop-color="#6C63FF" stop-opacity="0.1"/>
      <stop offset="1" stop-color="#9B94FF" stop-opacity="0.05"/>
    </linearGradient>
  </defs>
  <circle cx="150" cy="150" r="140" fill="url(#g1)"/>
  <circle cx="150" cy="150" r="100" fill="#6C63FF" opacity="0.08"/>
  <!-- Book -->
  <rect x="95" y="110" width="110" height="80" rx="6" fill="#6C63FF" opacity="0.15"/>
  <rect x="100" y="115" width="100" height="70" rx="4" fill="white"/>
  <line x1="150" y1="115" x2="150" y2="185" stroke="#6C63FF" stroke-width="1.5" opacity="0.3"/>
  <!-- Lines on book -->
  <rect x="110" y="128" width="30" height="3" rx="1.5" fill="#6C63FF" opacity="0.3"/>
  <rect x="110" y="138" width="25" height="3" rx="1.5" fill="#6C63FF" opacity="0.2"/>
  <rect x="110" y="148" width="32" height="3" rx="1.5" fill="#6C63FF" opacity="0.3"/>
  <rect x="110" y="158" width="20" height="3" rx="1.5" fill="#6C63FF" opacity="0.2"/>
  <rect x="160" y="128" width="28" height="3" rx="1.5" fill="#9B94FF" opacity="0.3"/>
  <rect x="160" y="138" width="32" height="3" rx="1.5" fill="#9B94FF" opacity="0.2"/>
  <rect x="160" y="148" width="24" height="3" rx="1.5" fill="#9B94FF" opacity="0.3"/>
  <!-- Rocket -->
  <g transform="translate(190, 70) rotate(25)">
    <ellipse cx="15" cy="20" rx="8" ry="16" fill="#FF6584"/>
    <circle cx="15" cy="15" r="4" fill="white" opacity="0.7"/>
    <path d="M7 32L15 28L23 32L20 40L10 40Z" fill="#FFD700"/>
  </g>
  <!-- Stars -->
  <circle cx="80" cy="80" r="4" fill="#FFD700"/>
  <circle cx="230" cy="100" r="3" fill="#FFD700"/>
  <circle cx="100" cy="210" r="3" fill="#FF6584"/>
  <circle cx="220" cy="200" r="4" fill="#43E97B"/>
  <circle cx="70" cy="170" r="2" fill="#9B94FF"/>
  <!-- Sparkles -->
  <path d="M250 70L253 77L260 80L253 83L250 90L247 83L240 80L247 77Z" fill="#FFD700" opacity="0.7"/>
  <path d="M60 230L62 235L67 237L62 239L60 244L58 239L53 237L58 235Z" fill="#6C63FF" opacity="0.5"/>
</svg>
